<svg xmlns="http://www.w3.org/2000/svg" viewBox="0 0 960 560" role="img" aria-labelledby="title"><title id="title">固定額と実工数の区別</title><rect width="960" height="560" fill="white"/><defs><marker id="nav" markerWidth="8" markerHeight="8" refX="7" refY="4" orient="auto"><path d="M0,0 L8,4 L0,8 Z" fill="#1F3A65"/></marker><marker id="red" markerWidth="8" markerHeight="8" refX="7" refY="4" orient="auto"><path d="M0,0 L8,4 L0,8 Z" fill="#C82D2D"/></marker><marker id="gray" markerWidth="8" markerHeight="8" refX="7" refY="4" orient="auto"><path d="M0,0 L8,4 L0,8 Z" fill="#888"/></marker></defs><text x="35.00" y="42" font-family="DejaVu Sans" font-size="24" fill="#1F3A65">13-7  </text><text x="104.70" y="42" font-family="Noto Sans CJK JP" font-size="24" fill="#1F3A65">固定額と実工数の区別</text><line x1="165" y1="435" x2="785" y2="435" stroke="#888" stroke-width="1.2" marker-end="url(#gray)"/><line x1="165" y1="435" x2="165" y2="150" stroke="#888" stroke-width="1.2" marker-end="url(#gray)"/><text x="795.00" y="440" font-family="Noto Sans CJK JP" font-size="20" fill="#888">区分</text><text x="155.00" y="138" font-family="Noto Sans CJK JP" font-size="20" fill="#888">金額</text><text x="195.00" y="138" font-family="DejaVu Sans" font-size="20" fill="#888"> [</text><text x="209.16" y="138" font-family="Noto Sans CJK JP" font-size="20" fill="#888">万円</text><text x="249.16" y="138" font-family="DejaVu Sans" font-size="20" fill="#888">]</text><rect x="260" y="185.0" width="150" height="250.0" fill="#E1E7F2" stroke="#1F3A65" stroke-width="2.5"/><text x="309.56" y="175.0" font-family="DejaVu Sans" font-size="20" fill="#1F3A65">1000</text><text x="275.00" y="475" font-family="Noto Sans CJK JP" font-size="20" fill="#1F3A65">契約の固定額</text><rect x="555" y="260.0" width="150" height="175.0" fill="#E1E7F2" stroke="#1F3A65" stroke-width="2.5"/><text x="610.92" y="250.0" font-family="DejaVu Sans" font-size="20" fill="#1F3A65">700</text><text x="580.00" y="475" font-family="Noto Sans CJK JP" font-size="20" fill="#1F3A65">実工数相当</text><text x="158.33" y="525" font-family="Noto Sans CJK JP" font-size="21" fill="#C82D2D">品質・範囲を満たし検収済み</text><text x="431.33" y="525" font-family="DejaVu Sans" font-size="21" fill="#C82D2D"> </text><text x="438.00" y="525" font-family="Noto Sans CJK JP" font-size="21" fill="#C82D2D">／</text><text x="459.00" y="525" font-family="DejaVu Sans" font-size="21" fill="#C82D2D"> </text><text x="465.67" y="525" font-family="Noto Sans CJK JP" font-size="21" fill="#C82D2D">工数を虚偽記載せず契約条件に従う</text></svg>