<svg xmlns="http://www.w3.org/2000/svg" viewBox="0 0 960 560" role="img" aria-labelledby="title"><title id="title">等間隔の三点で二階微分を近似</title><rect width="960" height="560" fill="white"/><defs><marker id="nav" markerWidth="8" markerHeight="8" refX="7" refY="4" orient="auto"><path d="M0,0 L8,4 L0,8 Z" fill="#1F3A65"/></marker><marker id="red" markerWidth="8" markerHeight="8" refX="7" refY="4" orient="auto"><path d="M0,0 L8,4 L0,8 Z" fill="#C82D2D"/></marker><marker id="gray" markerWidth="8" markerHeight="8" refX="7" refY="4" orient="auto"><path d="M0,0 L8,4 L0,8 Z" fill="#888"/></marker></defs><text x="35.00" y="42" font-family="DejaVu Sans" font-size="24" fill="#1F3A65">1-11  </text><text x="104.70" y="42" font-family="Noto Sans CJK JP" font-size="24" fill="#1F3A65">等間隔の三点で二階微分を近似</text><line x1="130" y1="330" x2="835" y2="330" stroke="#888" stroke-width="1.2"/><circle cx="230" cy="330" r="5" fill="#1F3A65"/><text x="209.36" y="370" font-family="DejaVu Sans" font-size="20" fill="#1F3A65">x−h</text><text x="198.04" y="155" font-family="DejaVu Sans" font-size="20" fill="#1F3A65">f(x−h)</text><line x1="230" y1="175" x2="230" y2="310" stroke="#888" stroke-width="1.2" stroke-dasharray="5 4"/><text x="201.99" y="250" font-family="DejaVu Sans" font-size="38" fill="#C82D2D">+1</text><circle cx="480" cy="330" r="5" fill="#1F3A65"/><text x="474.08" y="370" font-family="DejaVu Sans" font-size="20" fill="#1F3A65">x</text><text x="462.76" y="155" font-family="DejaVu Sans" font-size="20" fill="#1F3A65">f(x)</text><line x1="480" y1="175" x2="480" y2="310" stroke="#888" stroke-width="1.2" stroke-dasharray="5 4"/><text x="451.99" y="250" font-family="DejaVu Sans" font-size="38" fill="#C82D2D">−2</text><circle cx="730" cy="330" r="5" fill="#1F3A65"/><text x="709.36" y="370" font-family="DejaVu Sans" font-size="20" fill="#1F3A65">x+h</text><text x="698.04" y="155" font-family="DejaVu Sans" font-size="20" fill="#1F3A65">f(x+h)</text><line x1="730" y1="175" x2="730" y2="310" stroke="#888" stroke-width="1.2" stroke-dasharray="5 4"/><text x="701.99" y="250" font-family="DejaVu Sans" font-size="38" fill="#C82D2D">+1</text><line x1="230" y1="410" x2="480" y2="410" stroke="#888" stroke-width="1.2"/><text x="348.66" y="440" font-family="DejaVu Sans" font-size="20" fill="#1F3A65">h</text><line x1="480" y1="410" x2="730" y2="410" stroke="#888" stroke-width="1.2"/><text x="598.66" y="440" font-family="DejaVu Sans" font-size="20" fill="#1F3A65">h</text><text x="290.45" y="525" font-family="DejaVu Sans" font-size="21" fill="#C82D2D">f″(x) ≈ [f(x−h) − 2f(x) + f(x+h)] / h²</text></svg>