<svg xmlns="http://www.w3.org/2000/svg" viewBox="0 0 960 560" role="img" aria-labelledby="title"><title id="title">せん断面は、面の法線で指定する</title><rect width="960" height="560" fill="white"/><defs><marker id="nav" markerWidth="8" markerHeight="8" refX="7" refY="4" orient="auto"><path d="M0,0 L8,4 L0,8 Z" fill="#1F3A65"/></marker><marker id="red" markerWidth="8" markerHeight="8" refX="7" refY="4" orient="auto"><path d="M0,0 L8,4 L0,8 Z" fill="#C82D2D"/></marker><marker id="gray" markerWidth="8" markerHeight="8" refX="7" refY="4" orient="auto"><path d="M0,0 L8,4 L0,8 Z" fill="#888"/></marker></defs><text x="35.00" y="42" font-family="DejaVu Sans" font-size="24" fill="#1F3A65">2-33  </text><text x="104.70" y="42" font-family="Noto Sans CJK JP" font-size="24" fill="#1F3A65">せん断面は、面の法線で指定する</text><line x1="200" y1="355" x2="480" y2="355" stroke="#888" stroke-width="1.2" marker-end="url(#gray)"/><line x1="200" y1="355" x2="200" y2="125" stroke="#888" stroke-width="1.2" marker-end="url(#gray)"/><text x="490.00" y="360" font-family="Noto Sans CJK JP" font-size="20" fill="#888">第</text><text x="510.00" y="360" font-family="DejaVu Sans" font-size="20" fill="#888">1</text><text x="522.72" y="360" font-family="Noto Sans CJK JP" font-size="20" fill="#888">主軸</text><text x="190.00" y="113" font-family="Noto Sans CJK JP" font-size="20" fill="#888">第</text><text x="210.00" y="113" font-family="DejaVu Sans" font-size="20" fill="#888">3</text><text x="222.72" y="113" font-family="Noto Sans CJK JP" font-size="20" fill="#888">主軸</text><line x1="200" y1="355" x2="355" y2="200" stroke="#C82D2D" stroke-width="2.5" marker-end="url(#red)"/><text x="350.00" y="160" font-family="DejaVu Sans" font-size="20" fill="#C82D2D">n = (1,0,1)/√2</text><polyline points="270.00,355.00 269.99,353.63 269.95,352.25 269.88,350.88 269.78,349.51 269.66,348.14 269.51,346.77 269.34,345.41 269.14,344.05 268.91,342.69 268.65,341.34 268.37,340.00 268.07,338.66 267.73,337.33 267.37,336.00 266.99,334.68 266.57,333.37 266.14,332.07 265.67,330.77 265.19,329.49 264.67,328.21 264.13,326.95 263.57,325.69 262.98,324.45 262.37,323.22 261.73,322.00 261.07,320.80 260.39,319.60 259.68,318.43 258.96,317.26 258.20,316.11 257.43,314.97 256.63,313.86 255.81,312.75 254.97,311.66 254.11,310.59 253.23,309.54 252.33,308.50 251.40,307.48 250.46,306.48 249.50,305.50" fill="none" stroke="#888" stroke-width="1.2"/><text x="290.00" y="325" font-family="DejaVu Sans" font-size="20" fill="#1F3A65">45°</text><text x="540.00" y="175" font-family="Noto Sans CJK JP" font-size="20" fill="#1F3A65">最大せん断面：</text><text x="540.00" y="220" font-family="Noto Sans CJK JP" font-size="20" fill="#1F3A65">法線が第</text><text x="620.00" y="220" font-family="DejaVu Sans" font-size="20" fill="#1F3A65">1</text><text x="632.72" y="220" font-family="Noto Sans CJK JP" font-size="20" fill="#1F3A65">・第</text><text x="672.72" y="220" font-family="DejaVu Sans" font-size="20" fill="#1F3A65">3</text><text x="685.44" y="220" font-family="Noto Sans CJK JP" font-size="20" fill="#1F3A65">主軸を二等分</text><text x="540.00" y="265" font-family="Noto Sans CJK JP" font-size="20" fill="#1F3A65">面は第</text><text x="600.00" y="265" font-family="DejaVu Sans" font-size="20" fill="#1F3A65">2</text><text x="612.72" y="265" font-family="Noto Sans CJK JP" font-size="20" fill="#1F3A65">主軸に平行</text><text x="540.00" y="335" font-family="Noto Sans CJK JP" font-size="20" fill="#1F3A65">八面体面の法線：</text><text x="540.00" y="380" font-family="DejaVu Sans" font-size="20" fill="#1F3A65">n = (±1,±1,±1)/√3</text><text x="214.60" y="525" font-family="DejaVu Sans" font-size="21" fill="#C82D2D">τmax = (σ₁−σ₃)/2 </text><text x="408.48" y="525" font-family="Noto Sans CJK JP" font-size="21" fill="#C82D2D">／</text><text x="429.48" y="525" font-family="DejaVu Sans" font-size="21" fill="#C82D2D"> </text><text x="436.15" y="525" font-family="Noto Sans CJK JP" font-size="21" fill="#C82D2D">八面体面の法線は各主軸と</text><text x="688.15" y="525" font-family="DejaVu Sans" font-size="21" fill="#C82D2D">54.7°</text></svg>