<svg xmlns="http://www.w3.org/2000/svg" id="fig2-39" viewBox="0 0 640 360">
<rect width="640" height="360" fill="white" />
<rect x="100" y="95" width="440" height="165" fill="#E1E7F2" stroke="#1F3A65" stroke-width="2.5" />
<circle cx="320.000" cy="136.250" r="16.5" fill="white" stroke="#1F3A65" stroke-width="2.5" />
<circle cx="320.000" cy="218.750" r="16.5" fill="white" stroke="#1F3A65" stroke-width="2.5" />
<path d="M320.000 83.000 L320.000 277.000" stroke="#888" stroke-width="1.2" fill="none" stroke-linejoin="round" stroke-dasharray="5 4" />
<path d="M100.000 177.500 L32.000 177.500" stroke="#C82D2D" stroke-width="2.5" fill="none" stroke-linejoin="round" />
<path d="M32.000 177.500 L41.048 173.241 L41.048 181.759 Z" stroke="#C82D2D" stroke-width="0" fill="#C82D2D" stroke-linejoin="round" />
<path d="M540.000 177.500 L608.000 177.500" stroke="#C82D2D" stroke-width="2.5" fill="none" stroke-linejoin="round" />
<path d="M608.000 177.500 L598.952 181.759 L598.952 173.241 Z" stroke="#C82D2D" stroke-width="0" fill="#C82D2D" stroke-linejoin="round" />
<text x="61" y="153" fill="#C82D2D" font-family="Noto Sans CJK JP,sans-serif" font-size="20" text-anchor="middle" font-style="italic" id="text_10">P</text>
<text x="579" y="153" fill="#C82D2D" font-family="Noto Sans CJK JP,sans-serif" font-size="20" text-anchor="middle" font-style="italic" id="text_11">P</text>
<path d="M563.000 95.000 L563.000 260.000" stroke="#888" stroke-width="1.2" fill="none" stroke-linejoin="round" stroke-dasharray="5 4" />
<path d="M563.000 260.000 L558.741 250.952 L567.259 250.952 Z" stroke="#888" stroke-width="0" fill="#888" stroke-linejoin="round" />
<path d="M563.000 95.000 L567.259 104.048 L558.741 104.048 Z" stroke="#888" stroke-width="0" fill="#888" stroke-linejoin="round" />
<text x="578" y="183.5" fill="#888" font-family="Noto Sans CJK JP,sans-serif" font-size="18" text-anchor="start" font-style="italic" id="text_15" />
<text x="625" y="177.5" fill="#888" font-family="Noto Sans CJK JP,sans-serif" font-size="18" text-anchor="middle" font-style="italic" transform="rotate(-90 625 177.5)" id="text_16">W = 100mm</text>
<path d="M303.500 117.000 L336.500 117.000" stroke="#888" stroke-width="1.2" fill="none" stroke-linejoin="round" stroke-dasharray="5 4" />
<path d="M336.500 117.000 L327.452 121.259 L327.452 112.741 Z" stroke="#888" stroke-width="0" fill="#888" stroke-linejoin="round" />
<path d="M303.500 117.000 L312.548 112.741 L312.548 121.259 Z" stroke="#888" stroke-width="0" fill="#888" stroke-linejoin="round" />
<text x="320.0" y="105" fill="#888" font-family="Noto Sans CJK JP,sans-serif" font-size="18" text-anchor="middle" font-style="italic" id="text_20" />
<text x="405" y="86" fill="#888" font-family="Noto Sans CJK JP,sans-serif" font-size="18" text-anchor="middle" id="text_21">d = 20mm</text>
<path d="M378.000 94.000 L331.000 122.000" stroke="#888" stroke-width="1.2" fill="none" stroke-linejoin="round" />
<text x="337" y="300" fill="#888" font-family="Noto Sans CJK JP,sans-serif" font-size="17" text-anchor="middle" id="text_23">2孔を通る断面</text>
<text x="309" y="329" fill="#1F3A65" font-family="Noto Sans CJK JP,sans-serif" font-size="18" text-anchor="middle" id="text_24">Kt = 3　　σallow = 120MPa</text>
<!-- Claude回答後 注記 -->
<text x="320" y="26" fill="#C82D2D" font-family="Noto Sans CJK JP,sans-serif" font-size="15" text-anchor="middle">正味幅 W−2d = 60mm，  Anet = 60×10 = 600mm²</text>
<text x="320" y="50" fill="#C82D2D" font-family="Noto Sans CJK JP,sans-serif" font-size="15" text-anchor="middle">P ≤ σallow·Anet / Kt = 120×600 / 3 ≈ 24kN</text>
<circle cx="320" cy="119.75" r="3.5" fill="#C82D2D" />
<circle cx="320" cy="152.75" r="3.5" fill="#C82D2D" />
<circle cx="320" cy="202.25" r="3.5" fill="#C82D2D" />
<circle cx="320" cy="235.25" r="3.5" fill="#C82D2D" />
<path d="M432 238 L332 206" stroke="#C82D2D" stroke-width="1.5" fill="none" />
<path d="M332 206 L342.4 207.6 L338.8 199.9 Z" fill="#C82D2D" />
<text x="470" y="242" fill="#C82D2D" font-family="Noto Sans CJK JP,sans-serif" font-size="15" text-anchor="middle">σmax = Kt·σnet（孔縁）</text>
</svg>