<?xml version='1.0' encoding='utf-8'?>
<svg xmlns="http://www.w3.org/2000/svg" viewBox="0 0 960 560" role="img" aria-labelledby="title"><title id="title">断熱境界と等温線</title><rect width="960" height="560" fill="white" /><defs><marker id="nav" markerWidth="8" markerHeight="8" refX="7" refY="4" orient="auto"><path d="M0,0 L8,4 L0,8 Z" fill="#1F3A65" /></marker><marker id="red" markerWidth="8" markerHeight="8" refX="7" refY="4" orient="auto"><path d="M0,0 L8,4 L0,8 Z" fill="#C82D2D" /></marker><marker id="gray" markerWidth="8" markerHeight="8" refX="7" refY="4" orient="auto"><path d="M0,0 L8,4 L0,8 Z" fill="#888" /></marker></defs><text x="35.00" y="42" font-family="DejaVu Sans" font-size="24" fill="#1F3A65">3-6  </text><text x="89.44" y="42" font-family="Noto Sans CJK JP" font-size="24" fill="#1F3A65">断熱境界と等温線</text><rect x="180" y="160" width="510" height="260" fill="#E1E7F2" stroke="#1F3A65" stroke-width="2.5" /><line x1="690" y1="160" x2="690" y2="420" stroke="#C82D2D" stroke-width="4" /><text x="720.00" y="290" font-family="Noto Sans CJK JP" font-size="20" fill="#1F3A65">断熱</text><text x="720.00" y="330" font-family="DejaVu Sans" font-size="20" fill="#1F3A65">q · n = 0</text><line x1="690" y1="440" x2="770" y2="440" stroke="#888" stroke-width="2.5" marker-end="url(#gray)" /><text x="790.00" y="446" font-family="DejaVu Sans" font-size="20" fill="#1F3A65">n</text><line x1="180" y1="210" x2="690" y2="210" stroke="#1F3A65" stroke-width="2.5" /><text x="210.00" y="200" font-family="DejaVu Sans" font-size="16" fill="#1F3A65">T₁</text><line x1="180" y1="265" x2="690" y2="265" stroke="#1F3A65" stroke-width="2.5" /><text x="210.00" y="255" font-family="DejaVu Sans" font-size="16" fill="#1F3A65">T₂</text><line x1="180" y1="320" x2="690" y2="320" stroke="#1F3A65" stroke-width="2.5" /><text x="210.00" y="310" font-family="DejaVu Sans" font-size="16" fill="#1F3A65">T₃</text><line x1="180" y1="375" x2="690" y2="375" stroke="#1F3A65" stroke-width="2.5" /><text x="210.00" y="365" font-family="DejaVu Sans" font-size="16" fill="#1F3A65">T₄</text><line x1="500" y1="245" x2="500" y2="295" stroke="#C82D2D" stroke-width="2.5" marker-end="url(#red)" /><text x="520.00" y="278" font-family="Noto Sans CJK JP" font-size="20" fill="#C82D2D">熱流</text><text x="231.83" y="525" font-family="Noto Sans CJK JP" font-size="21" fill="#C82D2D">等温線は断熱境界に直交</text><text x="462.83" y="525" font-family="DejaVu Sans" font-size="21" fill="#C82D2D"> </text><text x="469.50" y="525" font-family="Noto Sans CJK JP" font-size="21" fill="#C82D2D">／</text><text x="490.50" y="525" font-family="DejaVu Sans" font-size="21" fill="#C82D2D"> </text><text x="497.17" y="525" font-family="Noto Sans CJK JP" font-size="21" fill="#C82D2D">非零勾配・等方性の場合</text></svg>