<svg xmlns="http://www.w3.org/2000/svg" viewBox="0 0 960 560" role="img" aria-labelledby="title"><title id="title">納品した誤りの訂正</title><rect width="960" height="560" fill="white"/><defs><marker id="nav" markerWidth="8" markerHeight="8" refX="7" refY="4" orient="auto"><path d="M0,0 L8,4 L0,8 Z" fill="#1F3A65"/></marker><marker id="red" markerWidth="8" markerHeight="8" refX="7" refY="4" orient="auto"><path d="M0,0 L8,4 L0,8 Z" fill="#C82D2D"/></marker><marker id="gray" markerWidth="8" markerHeight="8" refX="7" refY="4" orient="auto"><path d="M0,0 L8,4 L0,8 Z" fill="#888"/></marker></defs><text x="35.00" y="42" font-family="DejaVu Sans" font-size="24" fill="#1F3A65">13-8  </text><text x="104.70" y="42" font-family="Noto Sans CJK JP" font-size="24" fill="#1F3A65">納品した誤りの訂正</text><rect x="70" y="140" width="340" height="95" fill="#E1E7F2" stroke="#1F3A65" stroke-width="2.5"/><text x="90.00" y="197" font-family="DejaVu Sans" font-size="20" fill="#1F3A65">1 </text><text x="109.08" y="197" font-family="Noto Sans CJK JP" font-size="20" fill="#1F3A65">誤りを通知</text><rect x="530" y="140" width="340" height="95" fill="#E1E7F2" stroke="#1F3A65" stroke-width="2.5"/><text x="550.00" y="197" font-family="DejaVu Sans" font-size="20" fill="#1F3A65">2 </text><text x="569.08" y="197" font-family="Noto Sans CJK JP" font-size="20" fill="#1F3A65">影響・利用停止を共有</text><rect x="530" y="345" width="340" height="95" fill="#E1E7F2" stroke="#1F3A65" stroke-width="2.5"/><text x="550.00" y="402" font-family="DejaVu Sans" font-size="20" fill="#1F3A65">3 </text><text x="569.08" y="402" font-family="Noto Sans CJK JP" font-size="20" fill="#1F3A65">再計算・検証</text><rect x="70" y="345" width="340" height="95" fill="#E1E7F2" stroke="#1F3A65" stroke-width="2.5"/><text x="90.00" y="402" font-family="DejaVu Sans" font-size="20" fill="#1F3A65">4 </text><text x="109.08" y="402" font-family="Noto Sans CJK JP" font-size="20" fill="#1F3A65">訂正報告・版の管理</text><line x1="420" y1="188" x2="520" y2="188" stroke="#888" stroke-width="2.5" marker-end="url(#gray)"/><line x1="700" y1="245" x2="700" y2="335" stroke="#888" stroke-width="2.5" marker-end="url(#gray)"/><line x1="520" y1="393" x2="420" y2="393" stroke="#888" stroke-width="2.5" marker-end="url(#gray)"/><text x="228.31" y="525" font-family="Noto Sans CJK JP" font-size="21" fill="#C82D2D">契約外の参考計算でも、提供済みの誤りを放置しない</text></svg>