<svg xmlns="http://www.w3.org/2000/svg" viewBox="0 0 960 560" role="img" aria-labelledby="title"><title id="title">中央脚の沈下と全橋</title><rect width="960" height="560" fill="white"/><defs><marker id="nav" markerWidth="8" markerHeight="8" refX="7" refY="4" orient="auto"><path d="M0,0 L8,4 L0,8 Z" fill="#1F3A65"/></marker><marker id="red" markerWidth="8" markerHeight="8" refX="7" refY="4" orient="auto"><path d="M0,0 L8,4 L0,8 Z" fill="#C82D2D"/></marker><marker id="gray" markerWidth="8" markerHeight="8" refX="7" refY="4" orient="auto"><path d="M0,0 L8,4 L0,8 Z" fill="#888"/></marker></defs><text x="35.00" y="42" font-family="DejaVu Sans" font-size="24" fill="#1F3A65">8-4  </text><text x="89.44" y="42" font-family="Noto Sans CJK JP" font-size="24" fill="#1F3A65">中央脚の沈下と全橋</text><line x1="95" y1="210" x2="845" y2="210" stroke="#1F3A65" stroke-width="8"/><line x1="95" y1="210" x2="95" y2="360" stroke="#1F3A65" stroke-width="6"/><text x="88.88" y="415" font-family="DejaVu Sans" font-size="20" fill="#1F3A65">a</text><line x1="220" y1="210" x2="220" y2="360" stroke="#1F3A65" stroke-width="6"/><text x="213.65" y="415" font-family="DejaVu Sans" font-size="20" fill="#1F3A65">b</text><line x1="345" y1="210" x2="345" y2="360" stroke="#1F3A65" stroke-width="6"/><text x="339.50" y="415" font-family="DejaVu Sans" font-size="20" fill="#1F3A65">c</text><line x1="470" y1="210" x2="470" y2="360" stroke="#1F3A65" stroke-width="6"/><text x="463.88" y="415" font-family="DejaVu Sans" font-size="20" fill="#1F3A65">o</text><line x1="595" y1="210" x2="595" y2="360" stroke="#1F3A65" stroke-width="6"/><text x="589.50" y="415" font-family="DejaVu Sans" font-size="20" fill="#1F3A65">c</text><line x1="720" y1="210" x2="720" y2="360" stroke="#1F3A65" stroke-width="6"/><text x="713.65" y="415" font-family="DejaVu Sans" font-size="20" fill="#1F3A65">b</text><line x1="845" y1="210" x2="845" y2="360" stroke="#1F3A65" stroke-width="6"/><text x="838.88" y="415" font-family="DejaVu Sans" font-size="20" fill="#1F3A65">a</text><polyline points="95.00,330.00 99.17,317.76 103.33,306.36 107.50,295.80 111.67,286.09 115.83,277.22 120.00,269.20 124.17,262.02 128.33,255.69 132.50,250.20 136.67,245.56 140.83,241.76 145.00,238.80 149.17,236.69 153.33,235.42 157.50,235.00 161.67,235.42 165.83,236.69 170.00,238.80 174.17,241.76 178.33,245.56 182.50,250.20 186.67,255.69 190.83,262.02 195.00,269.20 199.17,277.22 203.33,286.09 207.50,295.80 211.67,306.36 215.83,317.76 220.00,330.00" fill="none" stroke="#1F3A65" stroke-width="2.5"/><polyline points="220.00,330.00 224.17,317.76 228.33,306.36 232.50,295.80 236.67,286.09 240.83,277.22 245.00,269.20 249.17,262.02 253.33,255.69 257.50,250.20 261.67,245.56 265.83,241.76 270.00,238.80 274.17,236.69 278.33,235.42 282.50,235.00 286.67,235.42 290.83,236.69 295.00,238.80 299.17,241.76 303.33,245.56 307.50,250.20 311.67,255.69 315.83,262.02 320.00,269.20 324.17,277.22 328.33,286.09 332.50,295.80 336.67,306.36 340.83,317.76 345.00,330.00" fill="none" stroke="#1F3A65" stroke-width="2.5"/><polyline points="345.00,330.00 349.17,317.76 353.33,306.36 357.50,295.80 361.67,286.09 365.83,277.22 370.00,269.20 374.17,262.02 378.33,255.69 382.50,250.20 386.67,245.56 390.83,241.76 395.00,238.80 399.17,236.69 403.33,235.42 407.50,235.00 411.67,235.42 415.83,236.69 420.00,238.80 424.17,241.76 428.33,245.56 432.50,250.20 436.67,255.69 440.83,262.02 445.00,269.20 449.17,277.22 453.33,286.09 457.50,295.80 461.67,306.36 465.83,317.76 470.00,330.00" fill="none" stroke="#1F3A65" stroke-width="2.5"/><polyline points="470.00,330.00 474.17,317.76 478.33,306.36 482.50,295.80 486.67,286.09 490.83,277.22 495.00,269.20 499.17,262.02 503.33,255.69 507.50,250.20 511.67,245.56 515.83,241.76 520.00,238.80 524.17,236.69 528.33,235.42 532.50,235.00 536.67,235.42 540.83,236.69 545.00,238.80 549.17,241.76 553.33,245.56 557.50,250.20 561.67,255.69 565.83,262.02 570.00,269.20 574.17,277.22 578.33,286.09 582.50,295.80 586.67,306.36 590.83,317.76 595.00,330.00" fill="none" stroke="#1F3A65" stroke-width="2.5"/><polyline points="595.00,330.00 599.17,317.76 603.33,306.36 607.50,295.80 611.67,286.09 615.83,277.22 620.00,269.20 624.17,262.02 628.33,255.69 632.50,250.20 636.67,245.56 640.83,241.76 645.00,238.80 649.17,236.69 653.33,235.42 657.50,235.00 661.67,235.42 665.83,236.69 670.00,238.80 674.17,241.76 678.33,245.56 682.50,250.20 686.67,255.69 690.83,262.02 695.00,269.20 699.17,277.22 703.33,286.09 707.50,295.80 711.67,306.36 715.83,317.76 720.00,330.00" fill="none" stroke="#1F3A65" stroke-width="2.5"/><polyline points="720.00,330.00 724.17,317.76 728.33,306.36 732.50,295.80 736.67,286.09 740.83,277.22 745.00,269.20 749.17,262.02 753.33,255.69 757.50,250.20 761.67,245.56 765.83,241.76 770.00,238.80 774.17,236.69 778.33,235.42 782.50,235.00 786.67,235.42 790.83,236.69 795.00,238.80 799.17,241.76 803.33,245.56 807.50,250.20 811.67,255.69 815.83,262.02 820.00,269.20 824.17,277.22 828.33,286.09 832.50,295.80 836.67,306.36 840.83,317.76 845.00,330.00" fill="none" stroke="#1F3A65" stroke-width="2.5"/><line x1="470" y1="365" x2="470" y2="470" stroke="#C82D2D" stroke-width="2.5" marker-end="url(#red)"/><text x="198.30" y="525" font-family="Noto Sans CJK JP" font-size="21" fill="#C82D2D">形状・材料・支持は中央</text><text x="429.30" y="525" font-family="DejaVu Sans" font-size="21" fill="#C82D2D">o</text><text x="442.14" y="525" font-family="Noto Sans CJK JP" font-size="21" fill="#C82D2D">に対して左右対称</text><text x="609.52" y="525" font-family="DejaVu Sans" font-size="21" fill="#C82D2D"> </text><text x="616.19" y="525" font-family="Noto Sans CJK JP" font-size="21" fill="#C82D2D">／</text><text x="637.19" y="525" font-family="DejaVu Sans" font-size="21" fill="#C82D2D"> o</text><text x="656.70" y="525" font-family="Noto Sans CJK JP" font-size="21" fill="#C82D2D">だけが沈下</text></svg>