<svg xmlns="http://www.w3.org/2000/svg" viewBox="0 0 960 560" role="img" aria-labelledby="title"><title id="title">指定した荷重配置の比較</title><rect width="960" height="560" fill="white"/><defs><marker id="nav" markerWidth="8" markerHeight="8" refX="7" refY="4" orient="auto"><path d="M0,0 L8,4 L0,8 Z" fill="#1F3A65"/></marker><marker id="red" markerWidth="8" markerHeight="8" refX="7" refY="4" orient="auto"><path d="M0,0 L8,4 L0,8 Z" fill="#C82D2D"/></marker><marker id="gray" markerWidth="8" markerHeight="8" refX="7" refY="4" orient="auto"><path d="M0,0 L8,4 L0,8 Z" fill="#888"/></marker></defs><text x="35.00" y="42" font-family="DejaVu Sans" font-size="24" fill="#1F3A65">11-6  </text><text x="104.70" y="42" font-family="Noto Sans CJK JP" font-size="24" fill="#1F3A65">指定した荷重配置の比較</text><line x1="150" y1="435" x2="770" y2="435" stroke="#888" stroke-width="1.2" marker-end="url(#gray)"/><line x1="150" y1="435" x2="150" y2="130" stroke="#888" stroke-width="1.2" marker-end="url(#gray)"/><text x="780.00" y="440" font-family="Noto Sans CJK JP" font-size="20" fill="#888">配置</text><text x="140.00" y="118" font-family="DejaVu Sans" font-size="20" fill="#888">wmax / (PL³/EI)</text><rect x="210" y="185.0" width="95" height="250.0" fill="#E1E7F2" stroke="#1F3A65" stroke-width="2.5"/><text x="211.98" y="470" font-family="DejaVu Sans" font-size="18" fill="#1F3A65">A </text><text x="230.02" y="470" font-family="Noto Sans CJK JP" font-size="18" fill="#1F3A65">中央集中</text><text x="234.55" y="175.0" font-family="DejaVu Sans" font-size="20" fill="#C82D2D">1/48</text><rect x="400" y="237.08333333333334" width="95" height="197.91666666666666" fill="#E1E7F2" stroke="#1F3A65" stroke-width="2.5"/><text x="401.97" y="470" font-family="DejaVu Sans" font-size="18" fill="#1F3A65">B </text><text x="420.03" y="470" font-family="Noto Sans CJK JP" font-size="18" fill="#1F3A65">三点配置</text><text x="405.48" y="227.08333333333334" font-family="DejaVu Sans" font-size="20" fill="#C82D2D">19/1152</text><rect x="590" y="278.75" width="95" height="156.25" fill="#E1E7F2" stroke="#1F3A65" stroke-width="2.5"/><text x="591.86" y="470" font-family="DejaVu Sans" font-size="18" fill="#1F3A65">C </text><text x="610.14" y="470" font-family="Noto Sans CJK JP" font-size="18" fill="#1F3A65">一様分布</text><text x="608.20" y="268.75" font-family="DejaVu Sans" font-size="20" fill="#C82D2D">5/384</text><text x="277.36" y="525" font-family="Noto Sans CJK JP" font-size="21" fill="#C82D2D">同じ総荷重</text><text x="382.36" y="525" font-family="DejaVu Sans" font-size="21" fill="#C82D2D">P </text><text x="401.69" y="525" font-family="Noto Sans CJK JP" font-size="21" fill="#C82D2D">／</text><text x="422.69" y="525" font-family="DejaVu Sans" font-size="21" fill="#C82D2D"> </text><text x="429.36" y="525" font-family="Noto Sans CJK JP" font-size="21" fill="#C82D2D">この指定配置では</text><text x="597.36" y="525" font-family="DejaVu Sans" font-size="21" fill="#C82D2D"> A&gt;B&gt;C</text></svg>