<svg xmlns="http://www.w3.org/2000/svg" viewBox="0 0 960 560" role="img" aria-labelledby="title"><title id="title">予ひずみ状態での接着</title><rect width="960" height="560" fill="white"/><defs><marker id="nav" markerWidth="8" markerHeight="8" refX="7" refY="4" orient="auto"><path d="M0,0 L8,4 L0,8 Z" fill="#1F3A65"/></marker><marker id="red" markerWidth="8" markerHeight="8" refX="7" refY="4" orient="auto"><path d="M0,0 L8,4 L0,8 Z" fill="#C82D2D"/></marker><marker id="gray" markerWidth="8" markerHeight="8" refX="7" refY="4" orient="auto"><path d="M0,0 L8,4 L0,8 Z" fill="#888"/></marker></defs><text x="35.00" y="42" font-family="DejaVu Sans" font-size="24" fill="#1F3A65">5-28  </text><text x="104.70" y="42" font-family="Noto Sans CJK JP" font-size="24" fill="#1F3A65">予ひずみ状態での接着</text><rect x="100" y="230" width="195" height="55" fill="#E1E7F2" stroke="#1F3A65" stroke-width="2.5"/><line x1="100" y1="255" x2="45" y2="255" stroke="#C82D2D" stroke-width="2.5" marker-end="url(#red)"/><line x1="295" y1="255" x2="350" y2="255" stroke="#C82D2D" stroke-width="2.5" marker-end="url(#red)"/><text x="130.00" y="185" font-family="DejaVu Sans" font-size="20" fill="#1F3A65">A</text><text x="143.69" y="185" font-family="Noto Sans CJK JP" font-size="20" fill="#1F3A65">を引張</text><text x="90.00" y="340" font-family="DejaVu Sans" font-size="20" fill="#1F3A65">σ=200 MPa</text><text x="90.00" y="380" font-family="DejaVu Sans" font-size="20" fill="#1F3A65">E=200000 MPa</text><text x="90.00" y="420" font-family="DejaVu Sans" font-size="20" fill="#1F3A65">ν=0.3</text><rect x="435" y="230" width="180" height="55" fill="#E1E7F2" stroke="#1F3A65" stroke-width="2.5"/><rect x="435" y="202" width="180" height="28" fill="#E1E7F2" stroke="#1F3A65" stroke-width="2.5"/><text x="435.00" y="160" font-family="DejaVu Sans" font-size="20" fill="#1F3A65">B</text><text x="448.72" y="160" font-family="Noto Sans CJK JP" font-size="20" fill="#1F3A65">を接着</text><line x1="355" y1="250" x2="415" y2="250" stroke="#888" stroke-width="2.5" marker-end="url(#gray)"/><rect x="715" y="230" width="180" height="55" fill="#E1E7F2" stroke="#1F3A65" stroke-width="2.5"/><rect x="715" y="202" width="180" height="28" fill="#E1E7F2" stroke="#1F3A65" stroke-width="2.5"/><text x="720.00" y="160" font-family="Noto Sans CJK JP" font-size="20" fill="#1F3A65">外力を除く</text><line x1="635" y1="250" x2="695" y2="250" stroke="#888" stroke-width="2.5" marker-end="url(#gray)"/><text x="215.43" y="525" font-family="Noto Sans CJK JP" font-size="21" fill="#C82D2D">接着時の変形した形状を参照配置とする</text><text x="592.80" y="525" font-family="DejaVu Sans" font-size="21" fill="#C82D2D"> </text><text x="599.48" y="525" font-family="Noto Sans CJK JP" font-size="21" fill="#C82D2D">／</text><text x="620.48" y="525" font-family="DejaVu Sans" font-size="21" fill="#C82D2D"> </text><text x="627.15" y="525" font-family="Noto Sans CJK JP" font-size="21" fill="#C82D2D">引張は</text><text x="690.15" y="525" font-family="DejaVu Sans" font-size="21" fill="#C82D2D">x</text><text x="702.57" y="525" font-family="Noto Sans CJK JP" font-size="21" fill="#C82D2D">方向</text></svg>