<svg xmlns="http://www.w3.org/2000/svg" viewBox="0 0 960 560" role="img" aria-labelledby="title"><title id="title">剛体腕の偏心荷重</title><rect width="960" height="560" fill="white"/><defs><marker id="nav" markerWidth="8" markerHeight="8" refX="7" refY="4" orient="auto"><path d="M0,0 L8,4 L0,8 Z" fill="#1F3A65"/></marker><marker id="red" markerWidth="8" markerHeight="8" refX="7" refY="4" orient="auto"><path d="M0,0 L8,4 L0,8 Z" fill="#C82D2D"/></marker><marker id="gray" markerWidth="8" markerHeight="8" refX="7" refY="4" orient="auto"><path d="M0,0 L8,4 L0,8 Z" fill="#888"/></marker></defs><text x="35.00" y="42" font-family="DejaVu Sans" font-size="24" fill="#1F3A65">11-8  </text><text x="104.70" y="42" font-family="Noto Sans CJK JP" font-size="24" fill="#1F3A65">剛体腕の偏心荷重</text><line x1="145" y1="220" x2="520" y2="220" stroke="#1F3A65" stroke-width="5"/><line x1="145" y1="140" x2="145" y2="330" stroke="#1F3A65" stroke-width="4"/><line x1="520" y1="220" x2="520" y2="385" stroke="#1F3A65" stroke-width="7"/><circle cx="520" cy="220" r="7" fill="#1F3A65"/><text x="540.00" y="205" font-family="DejaVu Sans" font-size="20" fill="#1F3A65">B</text><text x="435.00" y="305" font-family="DejaVu Sans" font-size="20" fill="#1F3A65">a</text><line x1="520" y1="385" x2="790" y2="385" stroke="#1F3A65" stroke-width="2.5" marker-end="url(#nav)"/><text x="730.00" y="360" font-family="DejaVu Sans" font-size="20" fill="#1F3A65">P</text><line x1="80" y1="455" x2="190" y2="455" stroke="#888" stroke-width="1.2" marker-end="url(#gray)"/><line x1="80" y1="455" x2="80" y2="390" stroke="#888" stroke-width="1.2" marker-end="url(#gray)"/><text x="200.00" y="460" font-family="DejaVu Sans" font-size="20" fill="#888">x</text><text x="70.00" y="378" font-family="DejaVu Sans" font-size="20" fill="#888">y</text><line x1="520" y1="220" x2="765" y2="220" stroke="#C82D2D" stroke-width="2.5" marker-end="url(#red)"/><text x="625.00" y="190" font-family="Noto Sans CJK JP" font-size="20" fill="#C82D2D">力</text><text x="645.00" y="190" font-family="DejaVu Sans" font-size="20" fill="#C82D2D"> P</text><text x="565.00" y="285" font-family="DejaVu Sans" font-size="20" fill="#C82D2D">M=Pa</text><text x="622.44" y="285" font-family="Noto Sans CJK JP" font-size="20" fill="#C82D2D">（反時計回り）</text><text x="192.62" y="525" font-family="Noto Sans CJK JP" font-size="21" fill="#C82D2D">はりへ軸力</text><text x="297.62" y="525" font-family="DejaVu Sans" font-size="21" fill="#C82D2D">P</text><text x="310.28" y="525" font-family="Noto Sans CJK JP" font-size="21" fill="#C82D2D">と端モーメント</text><text x="456.44" y="525" font-family="DejaVu Sans" font-size="21" fill="#C82D2D">Pa</text><text x="481.03" y="525" font-family="Noto Sans CJK JP" font-size="21" fill="#C82D2D">を伝達</text><text x="544.03" y="525" font-family="DejaVu Sans" font-size="21" fill="#C82D2D"> </text><text x="550.70" y="525" font-family="Noto Sans CJK JP" font-size="21" fill="#C82D2D">／</text><text x="571.70" y="525" font-family="DejaVu Sans" font-size="21" fill="#C82D2D"> </text><text x="578.38" y="525" font-family="Noto Sans CJK JP" font-size="21" fill="#C82D2D">曲げ・回転が生じる</text></svg>