<svg xmlns="http://www.w3.org/2000/svg" viewBox="0 0 960 560" role="img" aria-labelledby="title"><title id="title">一次辺の一様荷重</title><rect width="960" height="560" fill="white"/><defs><marker id="nav" markerWidth="8" markerHeight="8" refX="7" refY="4" orient="auto"><path d="M0,0 L8,4 L0,8 Z" fill="#1F3A65"/></marker><marker id="red" markerWidth="8" markerHeight="8" refX="7" refY="4" orient="auto"><path d="M0,0 L8,4 L0,8 Z" fill="#C82D2D"/></marker><marker id="gray" markerWidth="8" markerHeight="8" refX="7" refY="4" orient="auto"><path d="M0,0 L8,4 L0,8 Z" fill="#888"/></marker></defs><text x="35.00" y="42" font-family="DejaVu Sans" font-size="24" fill="#1F3A65">9-7  </text><text x="89.44" y="42" font-family="Noto Sans CJK JP" font-size="24" fill="#1F3A65">一次辺の一様荷重</text><circle cx="150" cy="340" r="6" fill="#1F3A65"/><text x="143.64" y="375" font-family="DejaVu Sans" font-size="20" fill="#1F3A65">1</text><circle cx="310" cy="340" r="6" fill="#1F3A65"/><text x="303.64" y="375" font-family="DejaVu Sans" font-size="20" fill="#1F3A65">2</text><circle cx="470" cy="340" r="6" fill="#1F3A65"/><text x="463.64" y="375" font-family="DejaVu Sans" font-size="20" fill="#1F3A65">3</text><circle cx="630" cy="340" r="6" fill="#1F3A65"/><text x="623.64" y="375" font-family="DejaVu Sans" font-size="20" fill="#1F3A65">4</text><circle cx="790" cy="340" r="6" fill="#1F3A65"/><text x="783.64" y="375" font-family="DejaVu Sans" font-size="20" fill="#1F3A65">5</text><line x1="150" y1="340" x2="790" y2="340" stroke="#1F3A65" stroke-width="2.5"/><line x1="150" y1="210" x2="790" y2="210" stroke="#1F3A65" stroke-width="2.5"/><line x1="150" y1="210" x2="150" y2="310" stroke="#1F3A65" stroke-width="2.5" marker-end="url(#nav)"/><line x1="190" y1="210" x2="190" y2="310" stroke="#1F3A65" stroke-width="2.5" marker-end="url(#nav)"/><line x1="230" y1="210" x2="230" y2="310" stroke="#1F3A65" stroke-width="2.5" marker-end="url(#nav)"/><line x1="270" y1="210" x2="270" y2="310" stroke="#1F3A65" stroke-width="2.5" marker-end="url(#nav)"/><line x1="310" y1="210" x2="310" y2="310" stroke="#1F3A65" stroke-width="2.5" marker-end="url(#nav)"/><line x1="350" y1="210" x2="350" y2="310" stroke="#1F3A65" stroke-width="2.5" marker-end="url(#nav)"/><line x1="390" y1="210" x2="390" y2="310" stroke="#1F3A65" stroke-width="2.5" marker-end="url(#nav)"/><line x1="430" y1="210" x2="430" y2="310" stroke="#1F3A65" stroke-width="2.5" marker-end="url(#nav)"/><line x1="470" y1="210" x2="470" y2="310" stroke="#1F3A65" stroke-width="2.5" marker-end="url(#nav)"/><line x1="510" y1="210" x2="510" y2="310" stroke="#1F3A65" stroke-width="2.5" marker-end="url(#nav)"/><line x1="550" y1="210" x2="550" y2="310" stroke="#1F3A65" stroke-width="2.5" marker-end="url(#nav)"/><line x1="590" y1="210" x2="590" y2="310" stroke="#1F3A65" stroke-width="2.5" marker-end="url(#nav)"/><line x1="630" y1="210" x2="630" y2="310" stroke="#1F3A65" stroke-width="2.5" marker-end="url(#nav)"/><line x1="670" y1="210" x2="670" y2="310" stroke="#1F3A65" stroke-width="2.5" marker-end="url(#nav)"/><line x1="710" y1="210" x2="710" y2="310" stroke="#1F3A65" stroke-width="2.5" marker-end="url(#nav)"/><line x1="750" y1="210" x2="750" y2="310" stroke="#1F3A65" stroke-width="2.5" marker-end="url(#nav)"/><line x1="790" y1="210" x2="790" y2="310" stroke="#1F3A65" stroke-width="2.5" marker-end="url(#nav)"/><text x="400.00" y="160" font-family="Noto Sans CJK JP" font-size="20" fill="#1F3A65">合力</text><text x="440.00" y="160" font-family="DejaVu Sans" font-size="20" fill="#1F3A65"> 800 N </text><text x="512.20" y="160" font-family="Noto Sans CJK JP" font-size="20" fill="#1F3A65">／</text><text x="532.20" y="160" font-family="DejaVu Sans" font-size="20" fill="#1F3A65"> 4</text><text x="551.28" y="160" font-family="Noto Sans CJK JP" font-size="20" fill="#1F3A65">本の等長な一次辺</text><text x="120.26" y="440" font-family="DejaVu Sans" font-size="20" fill="#C82D2D">100 N</text><text x="280.26" y="440" font-family="DejaVu Sans" font-size="20" fill="#C82D2D">200 N</text><text x="440.26" y="440" font-family="DejaVu Sans" font-size="20" fill="#C82D2D">200 N</text><text x="600.26" y="440" font-family="DejaVu Sans" font-size="20" fill="#C82D2D">200 N</text><text x="760.26" y="440" font-family="DejaVu Sans" font-size="20" fill="#C82D2D">100 N</text><text x="298.64" y="525" font-family="Noto Sans CJK JP" font-size="21" fill="#C82D2D">端点は</text><text x="361.64" y="525" font-family="DejaVu Sans" font-size="21" fill="#C82D2D">1</text><text x="375.00" y="525" font-family="Noto Sans CJK JP" font-size="21" fill="#C82D2D">辺分、内部節点は</text><text x="543.00" y="525" font-family="DejaVu Sans" font-size="21" fill="#C82D2D">2</text><text x="556.36" y="525" font-family="Noto Sans CJK JP" font-size="21" fill="#C82D2D">辺分を加算</text></svg>